<mxfile host="app.diagrams.net" modified="2023-09-08T08:10:12.158Z" agent="Mozilla/5.0 (Windows NT 10.0; Win64; x64) AppleWebKit/537.36 (KHTML, like Gecko) Chrome/116.0.0.0 Safari/537.36" etag="ro8481g6d1Gyge2Hfzgq" version="21.7.2" type="github">
  <diagram name="第 1 页" id="mUXLjm_rplK_BppscjsK">
    <mxGraphModel dx="2220" dy="1160" grid="1" gridSize="10" guides="1" tooltips="1" connect="1" arrows="1" fold="1" page="1" pageScale="1" pageWidth="827" pageHeight="1169" math="0" shadow="0">
      <root>
        <mxCell id="0" />
        <mxCell id="1" parent="0" />
        <mxCell id="vI6MRv04EMoEzyz4VY66-3" value="" style="shape=trapezoid;perimeter=trapezoidPerimeter;whiteSpace=wrap;html=1;fixedSize=1;rotation=90;fillColor=#d5e8d4;strokeColor=#82b366;" vertex="1" parent="1">
          <mxGeometry x="240" y="750" width="120" height="60" as="geometry" />
        </mxCell>
        <mxCell id="vI6MRv04EMoEzyz4VY66-4" value="" style="rounded=1;whiteSpace=wrap;html=1;rotation=90;fillColor=#f5f5f5;fontColor=#333333;strokeColor=#666666;" vertex="1" parent="1">
          <mxGeometry x="90" y="750" width="120" height="60" as="geometry" />
        </mxCell>
        <mxCell id="vI6MRv04EMoEzyz4VY66-5" value="" style="rounded=1;whiteSpace=wrap;html=1;rotation=90;fillColor=#fff2cc;strokeColor=#d6b656;" vertex="1" parent="1">
          <mxGeometry x="414" y="630" width="100" height="60" as="geometry" />
        </mxCell>
        <mxCell id="vI6MRv04EMoEzyz4VY66-6" value="" style="rounded=1;whiteSpace=wrap;html=1;rotation=90;fillColor=#f8cecc;strokeColor=#b85450;" vertex="1" parent="1">
          <mxGeometry x="414" y="750" width="100" height="60" as="geometry" />
        </mxCell>
        <mxCell id="vI6MRv04EMoEzyz4VY66-7" value="" style="rounded=1;whiteSpace=wrap;html=1;rotation=90;fillColor=#e1d5e7;strokeColor=#9673a6;" vertex="1" parent="1">
          <mxGeometry x="414" y="870" width="100" height="60" as="geometry" />
        </mxCell>
        <mxCell id="vI6MRv04EMoEzyz4VY66-8" value="" style="endArrow=classic;html=1;rounded=0;" edge="1" parent="1">
          <mxGeometry width="50" height="50" relative="1" as="geometry">
            <mxPoint x="190" y="779.58" as="sourcePoint" />
            <mxPoint x="260" y="780" as="targetPoint" />
          </mxGeometry>
        </mxCell>
        <mxCell id="vI6MRv04EMoEzyz4VY66-9" value="" style="endArrow=classic;html=1;rounded=0;" edge="1" parent="1">
          <mxGeometry width="50" height="50" relative="1" as="geometry">
            <mxPoint x="344" y="779.58" as="sourcePoint" />
            <mxPoint x="414" y="780" as="targetPoint" />
          </mxGeometry>
        </mxCell>
        <mxCell id="vI6MRv04EMoEzyz4VY66-10" value="" style="endArrow=classic;html=1;rounded=0;" edge="1" parent="1">
          <mxGeometry width="50" height="50" relative="1" as="geometry">
            <mxPoint x="344" y="760" as="sourcePoint" />
            <mxPoint x="400" y="670" as="targetPoint" />
          </mxGeometry>
        </mxCell>
        <mxCell id="vI6MRv04EMoEzyz4VY66-11" value="" style="endArrow=classic;html=1;rounded=0;" edge="1" parent="1">
          <mxGeometry width="50" height="50" relative="1" as="geometry">
            <mxPoint x="344" y="800" as="sourcePoint" />
            <mxPoint x="400" y="900" as="targetPoint" />
          </mxGeometry>
        </mxCell>
        <mxCell id="vI6MRv04EMoEzyz4VY66-12" value="CV" style="text;html=1;strokeColor=none;fillColor=none;align=center;verticalAlign=middle;whiteSpace=wrap;rounded=0;" vertex="1" parent="1">
          <mxGeometry x="434" y="650" width="60" height="30" as="geometry" />
        </mxCell>
        <mxCell id="vI6MRv04EMoEzyz4VY66-14" value="NLP" style="text;html=1;strokeColor=none;fillColor=none;align=center;verticalAlign=middle;whiteSpace=wrap;rounded=0;" vertex="1" parent="1">
          <mxGeometry x="434" y="765" width="60" height="30" as="geometry" />
        </mxCell>
        <mxCell id="vI6MRv04EMoEzyz4VY66-15" value="PINN" style="text;html=1;strokeColor=none;fillColor=none;align=center;verticalAlign=middle;whiteSpace=wrap;rounded=0;" vertex="1" parent="1">
          <mxGeometry x="434" y="885" width="60" height="30" as="geometry" />
        </mxCell>
        <mxCell id="vI6MRv04EMoEzyz4VY66-16" value="NN" style="text;html=1;strokeColor=none;fillColor=none;align=center;verticalAlign=middle;whiteSpace=wrap;rounded=0;" vertex="1" parent="1">
          <mxGeometry x="270" y="765" width="60" height="30" as="geometry" />
        </mxCell>
        <mxCell id="vI6MRv04EMoEzyz4VY66-17" value="输入" style="text;html=1;strokeColor=none;fillColor=none;align=center;verticalAlign=middle;whiteSpace=wrap;rounded=0;" vertex="1" parent="1">
          <mxGeometry x="120" y="770" width="60" height="25" as="geometry" />
        </mxCell>
      </root>
    </mxGraphModel>
  </diagram>
</mxfile>
